HIERARCHY
ROOT root
{
	OFFSET	0	13.1	24.9
	CHANNELS 6  Xposition Yposition Zposition Xrotation Yrotation Zrotation
	JOINT spine_1
	{
		OFFSET	0	9.99999	0
		CHANNELS 3  Xrotation Yrotation Zrotation
		JOINT spine_2
		{
			OFFSET	0	112	-10
			CHANNELS 3  Xrotation Yrotation Zrotation
			JOINT spine_3
			{
				OFFSET	0	206.5	19.3
				CHANNELS 3  Xrotation Yrotation Zrotation
				JOINT spine_4
				{
					OFFSET	0	110.4	14.6
					CHANNELS 3  Xrotation Yrotation Zrotation
					JOINT neck_1
					{
						OFFSET	0	71.8	-50.3
						CHANNELS 3  Xrotation Yrotation Zrotation
						JOINT neck_2
						{
							OFFSET	0	86.2	-25.8
							CHANNELS 3  Xrotation Yrotation Zrotation
							JOINT head_ee
							{
								OFFSET	0	179.8	-8.7
								CHANNELS 3  Xrotation Yrotation Zrotation
								End Site
								{
									OFFSET	1	0	0
								}
							}
						}
					}
					JOINT left_clavicle
					{
						OFFSET	-43.2	22.4	-70.8
						CHANNELS 3  Xrotation Yrotation Zrotation
						JOINT left_shoulder
						{
							OFFSET	-93.9	-5.79999	48.7
							CHANNELS 3  Xrotation Yrotation Zrotation
							JOINT left_elbow
							{
								OFFSET	-291.4	-30.8	15.2
								CHANNELS 3  Xrotation Yrotation Zrotation
								JOINT left_lowarm_twist
								{
									OFFSET	-110.7	-3.89999	13.6
									CHANNELS 3  Xrotation Yrotation Zrotation
									JOINT left_hand
									{
										OFFSET	-110.7	-3.89999	13.6
										CHANNELS 3  Xrotation Yrotation Zrotation
										JOINT left_ee
										{
											OFFSET	-80.8	-5.10001	12.1
											CHANNELS 3  Xrotation Yrotation Zrotation
											End Site
											{
												OFFSET	1	0	0
											}
										}
									}
								}
							}
						}
					}
					JOINT right_clavicle
					{
						OFFSET	43.2	22.4	-70.8
						CHANNELS 3  Xrotation Yrotation Zrotation
						JOINT right_shoulder
						{
							OFFSET	93.9	-5.79999	48.7
							CHANNELS 3  Xrotation Yrotation Zrotation
							JOINT right_elbow
							{
								OFFSET	291.4	-30.8	15.2
								CHANNELS 3  Xrotation Yrotation Zrotation
								JOINT right_lowarm_twist
								{
									OFFSET	110.7	-3.89999	13.6
									CHANNELS 3  Xrotation Yrotation Zrotation
									JOINT right_hand
									{
										OFFSET	110.7	-3.89999	13.6
										CHANNELS 3  Xrotation Yrotation Zrotation
										JOINT right_ee
										{
											OFFSET	80.8	-5.10001	12.1
											CHANNELS 3  Xrotation Yrotation Zrotation
											End Site
											{
												OFFSET	1	0	0
											}
										}
									}
								}
							}
						}
					}
				}
			}
		}
	}
	JOINT left_hip
	{
		OFFSET	-82.8	-127.5	0.300001
		CHANNELS 3  Xrotation Yrotation Zrotation
		JOINT left_knee
		{
			OFFSET	-28.2	-396.7	2.2
			CHANNELS 3  Xrotation Yrotation Zrotation
			JOINT left_ankle
			{
				OFFSET	-11.7	-411.3	35.4
				CHANNELS 3  Xrotation Yrotation Zrotation
				JOINT left_toes
				{
					OFFSET	0	-60	-88.6
					CHANNELS 3  Xrotation Yrotation Zrotation
					JOINT left_foot_ee
					{
						OFFSET	-22.5	-16.5	-42.2
						CHANNELS 3  Xrotation Yrotation Zrotation
						End Site
						{
							OFFSET	1	0	0
						}
					}
				}
			}
		}
	}
	JOINT right_hip
	{
		OFFSET	82.8	-127.5	0.300001
		CHANNELS 3  Xrotation Yrotation Zrotation
		JOINT right_knee
		{
			OFFSET	28.2	-396.7	2.2
			CHANNELS 3  Xrotation Yrotation Zrotation
			JOINT right_ankle
			{
				OFFSET	11.7	-411.3	35.4
				CHANNELS 3  Xrotation Yrotation Zrotation
				JOINT right_toes
				{
					OFFSET	0	-60	-88.6
					CHANNELS 3  Xrotation Yrotation Zrotation
					JOINT right_foot_ee
					{
						OFFSET	22.5	-16.5	-42.2
						CHANNELS 3  Xrotation Yrotation Zrotation
						End Site
						{
							OFFSET	1	0	0
						}
					}
				}
			}
		}
	}
}
MOTION
Frames: 14
Frame Time: 0.02
2836.69818143 715.276 -1614.07822583 5.65670501809 66.269248459 -4.95209951982 -0.0307387 -0.184845 2.50484 -0.0273137 -0.34381 2.48802 -0.0411446 -0.861333 2.35942 -0.0485949 -0.478018 2.46576 -9.47927 12.2421 -1.62154 -9.62851 24.1112 1.42941 -0.0 0.0 -0.0 2.35339 13.5178 5.45365 -12.7498 -26.8655 45.1982 1.3035 -32.8494 0.384265 -84.4617 -8.38457 5.19749 0.946253 2.39157 7.30005 -0.0 0.0 -0.0 10.9096 23.3575 -21.1741 -18.9916 18.0595 -64.8117 0.893024 23.8633 -0.188708 40.5213 0.376652 5.05624 1.58262 2.14202 -9.76408 0.0 0.0 0.0 10.1771 -7.37363 0.89886 -23.5136 0.237397 3.57529 15.6112 24.8967 -2.27655 5.99079 -0.0 -0.0 -0.0 0.0 -0.0 14.0629 20.6407 -6.67213 -49.286 1.16056 -7.24544 15.3877 -26.1175 2.26136 -8.34249 0.0 0.0 0.0 0.0 0.0 
2837.30325388 715.721 -1591.76037403 2.73725843154 69.8174999375 -2.07029698175 0.120838 -0.203354 2.43336 0.124061 -0.357737 2.4155 0.109878 -0.853592 2.28786 0.102897 -0.481665 2.39388 -10.3384 12.0483 -1.97235 -10.5403 24.0331 1.22855 -0.0 0.0 -0.0 2.37709 12.3641 5.42588 -9.55937 -28.0954 44.1691 1.44343 -35.564 0.462958 -85.0258 -8.45515 5.18395 0.744904 3.75729 6.50501 -0.0 0.0 -0.0 10.7693 23.2374 -20.8682 -19.4669 17.8369 -64.868 0.832437 22.4094 -0.1649 40.0217 0.350389 4.99799 1.37293 -0.586221 -9.44627 0.0 0.0 0.0 7.43224 -7.40856 1.58767 -23.5347 0.236948 3.57849 18.1651 24.9749 -2.62451 6.02459 -0.0 -0.0 -0.0 0.0 -0.0 22.2182 15.2927 -8.71548 -48.5334 1.09686 -7.14864 14.4013 -25.4569 2.11585 -9.08018 0.0 0.0 0.0 0.0 0.0 
2840.63565166 715.721 -1578.38411078 3.06982708592 72.0814311228 -2.42206667682 0.120838 -0.203354 2.43336 0.124061 -0.357737 2.4155 0.109878 -0.853592 2.28786 0.102897 -0.481665 2.39388 -10.3384 12.0483 -1.97235 -10.5403 24.0331 1.22855 -0.0 0.0 -0.0 2.37709 12.3641 5.42588 -9.55937 -28.0954 44.1691 1.44343 -35.564 0.462958 -85.0258 -8.45515 5.18395 0.744904 3.75729 6.50501 -0.0 0.0 -0.0 10.7693 23.2374 -20.8682 -19.4669 17.8369 -64.868 0.832437 22.4094 -0.1649 40.0217 0.350389 4.99799 1.37293 -0.586221 -9.44627 0.0 0.0 0.0 7.43224 -7.40856 1.58767 -23.5347 0.236948 3.57849 18.1651 24.9749 -2.62451 6.02459 -0.0 -0.0 -0.0 0.0 -0.0 22.2182 15.2927 -8.71548 -48.5334 1.09686 -7.14864 14.4013 -25.4569 2.11585 -9.08018 0.0 0.0 0.0 0.0 0.0 
2845.87825949 726.058 -1557.97232623 -1.42277634417 77.0727525196 2.8061413467 0.252981 -0.23435 2.24112 0.255696 -0.376448 2.22168 0.241727 -0.8266 2.09631 0.235922 -0.485239 2.20049 -10.3374 11.7741 -2.5754 -10.5271 23.9162 0.567405 -0.0 0.0 -0.0 2.35024 11.1458 5.30736 -7.43707 -30.0125 43.4322 1.59851 -38.3712 0.55624 -85.153 -8.47104 5.1808 0.549739 5.94686 6.08976 -0.0 0.0 -0.0 10.6046 23.2592 -20.4945 -19.3908 17.0348 -65.3067 0.683623 18.7086 -0.112614 40.2973 0.364818 5.03016 0.930829 -4.46911 -8.02431 0.0 0.0 0.0 3.79907 -7.74116 0.740216 -6.71355 0.217631 1.00676 8.41746 25.3273 -1.26006 1.86446 -0.0 -0.0 -0.0 0.0 -0.0 27.8282 12.941 -7.57958 -46.5871 0.938093 -6.89459 14.4796 -25.0225 2.12165 -9.68998 0.0 0.0 0.0 0.0 0.0 
2795.6800524 725.293 -1534.94947573 -10.8449259534 80.9725395727 11.911183576 0.455242 -0.129718 1.85217 0.457117 -0.247293 1.84017 0.449585 -0.615032 1.75192 0.445455 -0.33068 1.82703 -8.47487 10.7716 -3.55089 -8.50535 22.6238 -1.05045 -0.0 0.0 -0.0 2.41474 8.53689 5.25529 -0.0256069 -33.9418 41.7507 1.98039 -44.4464 0.809187 -84.3026 -8.36464 5.20118 -0.2323 10.0935 2.69079 -0.0 0.0 -0.0 9.7034 21.3438 -18.6366 -24.3161 14.7596 -67.9556 0.399805 11.2028 -0.0392111 39.1137 0.303966 4.89155 -0.216501 -17.0375 -5.60822 0.0 0.0 0.0 -2.71582 -4.90013 2.24937 3.99648 -0.185085 -0.585134 1.12689 24.8442 -0.1715 -2.18008 0.0 0.0 -0.0 0.0 -0.0 35.242 8.10293 -6.59651 -31.9387 0.035061 -4.83842 2.05645 -21.922 0.30804 -14.3939 0.0 0.0 0.0 0.0 0.0 
2795.93670691 725.293 -1534.22314313 -10.975769344 81.0797335309 12.0436483298 0.455242 -0.129718 1.85217 0.457117 -0.247293 1.84017 0.449585 -0.615032 1.75192 0.445455 -0.33068 1.82703 -8.47487 10.7716 -3.55089 -8.50535 22.6238 -1.05045 -0.0 0.0 -0.0 2.41474 8.53689 5.25529 -0.0256069 -33.9418 41.7507 1.98039 -44.4464 0.809187 -84.3026 -8.36464 5.20118 -0.2323 10.0935 2.69079 -0.0 0.0 -0.0 9.7034 21.3438 -18.6366 -24.3161 14.7596 -67.9556 0.399805 11.2028 -0.0392111 39.1137 0.303966 4.89155 -0.216501 -17.0375 -5.60822 0.0 0.0 0.0 -2.71582 -4.90013 2.24937 3.99648 -0.185085 -0.585134 1.12689 24.8442 -0.1715 -2.18008 0.0 0.0 -0.0 0.0 -0.0 35.242 8.10293 -6.59651 -31.9387 0.035061 -4.83842 2.05645 -21.922 0.30804 -14.3939 0.0 0.0 0.0 0.0 0.0 
2796.34120923 725.293 -1533.08724542 -11.1870294113 81.2474204247 12.2574457419 0.455242 -0.129718 1.85217 0.457117 -0.247293 1.84017 0.449585 -0.615032 1.75192 0.445455 -0.33068 1.82703 -8.47487 10.7716 -3.55089 -8.50535 22.6238 -1.05045 -0.0 0.0 -0.0 2.41474 8.53689 5.25529 -0.0256069 -33.9418 41.7507 1.98039 -44.4464 0.809187 -84.3026 -8.36464 5.20118 -0.2323 10.0935 2.69079 -0.0 0.0 -0.0 9.7034 21.3438 -18.6366 -24.3161 14.7596 -67.9556 0.399805 11.2028 -0.0392111 39.1137 0.303966 4.89155 -0.216501 -17.0375 -5.60822 0.0 0.0 0.0 -2.71582 -4.90013 2.24937 3.99648 -0.185085 -0.585134 1.12689 24.8442 -0.1715 -2.18008 0.0 0.0 -0.0 0.0 -0.0 35.242 8.10293 -6.59651 -31.9387 0.035061 -4.83842 2.05645 -21.922 0.30804 -14.3939 0.0 0.0 0.0 0.0 0.0 
2781.4028237 722.563 -1535.17552719 -14.2137263668 81.6809631675 14.8994691624 0.596899 -0.234062 1.93473 0.598911 -0.356677 1.91592 0.587276 -0.733225 1.80568 0.582994 -0.438904 1.89878 -9.34754 10.1709 -3.09558 -9.42554 21.2129 -0.570359 -0.0 0.0 -0.0 2.45553 8.26584 5.30992 1.35221 -34.4906 41.4981 2.13839 -46.6435 0.921987 -84.0819 -8.33698 5.20621 -0.507362 11.841 1.66667 -0.0 0.0 -0.0 9.47315 20.3829 -18.1981 -25.6724 14.4046 -68.4987 0.432201 12.0848 -0.0457497 38.798 0.288223 4.85437 -0.393962 -19.2913 -5.4313 0.0 0.0 0.0 -2.57644 -4.13457 2.77518 3.71517 -0.170723 -0.544374 4.09953 23.7361 -0.616 -1.70313 0.0 0.0 -0.0 0.0 -0.0 34.1151 7.88289 -6.13579 -26.0063 -0.1762 -3.9529 -0.43773 -17.5891 -0.064952 -15.4625 0.0 0.0 0.0 0.0 0.0 
2763.4420279 718.99 -1531.86617712 -9.38626338137 82.6178750786 9.77247117846 0.538778 -0.298175 2.05293 0.541021 -0.428177 2.02981 0.526156 -0.828184 1.90204 0.52148 -0.517463 2.00892 -10.0433 9.29547 -3.45938 -10.1308 19.8283 -1.01966 -0.0 0.0 -0.0 2.48347 8.01645 5.34351 2.42097 -34.3302 41.2408 2.23736 -47.9347 0.99471 -83.9274 -8.31759 5.20967 -0.768386 13.3843 0.678008 -0.0 0.0 -0.0 8.98358 18.7437 -17.2289 -26.9389 14.818 -68.743 0.455856 12.7252 -0.0508312 38.8973 0.293155 4.86608 -0.423833 -20.5157 -5.74262 0.0 0.0 0.0 -4.02122 -3.60572 3.42998 2.24262 -0.0988257 -0.32991 8.82242 22.6027 -1.30124 -0.936568 0.0 0.0 -0.0 0.0 -0.0 33.6807 7.29043 -5.62941 -20.2019 -0.293183 -3.07025 -4.87383 -14.6946 -0.724783 -17.1162 0.0 0.0 0.0 0.0 0.0 
2745.24599962 704.56 -1534.15444769 -4.93710814984 81.17241554 4.83438173516 0.644679 -0.14933 2.17705 0.64727 -0.287525 2.16314 0.636878 -0.713235 2.06236 0.631142 -0.378652 2.14907 -11.0431 8.17726 -3.49622 -11.1411 17.7511 -1.1843 -0.0 0.0 -0.0 2.45145 7.62678 5.26165 4.00983 -34.5018 40.9302 2.31182 -48.8654 1.05039 -83.5865 -8.27478 5.21711 -1.02867 15.3655 -0.0812243 -0.0 0.0 -0.0 8.00606 15.8156 -15.2655 -27.8677 15.0977 -68.9032 0.559259 15.4851 -0.0760381 38.9701 0.29678 4.87465 -0.321673 -20.6328 -6.39588 0.0 0.0 0.0 -5.37911 -4.7033 3.49522 -0.389195 0.0158301 0.0576282 14.2391 20.033 -2.04032 0.20648 -0.0 -0.0 -0.0 0.0 -0.0 32.9978 6.64302 -5.66386 -10.0455 -0.281484 -1.51399 -11.8916 -10.2998 -1.77771 -18.7635 0.0 0.0 0.0 0.0 0.0 
2729.5719824 709.212 -1536.8905376 -4.94398419444 80.2591620032 4.70713773174 0.688222 -0.0337626 2.26486 0.691058 -0.177776 2.25813 0.684651 -0.622775 2.17786 0.678134 -0.271098 2.24884 -11.8394 7.27873 -4.17676 -11.9278 16.4857 -1.97227 -0.0 0.0 -0.0 2.50215 7.31563 5.33203 4.70582 -34.4958 40.9575 2.40213 -49.9497 1.11898 -83.355 -8.2457 5.22201 -1.32667 17.3402 -1.02744 -0.0 0.0 -0.0 7.45114 13.708 -14.1787 -28.5025 15.3156 -69.1423 0.632995 17.4098 -0.0969182 39.3888 0.317854 4.92388 -0.252965 -20.7625 -6.85483 0.0 0.0 0.0 -4.7303 -5.51383 4.02223 -2.56146 0.0969576 0.381111 17.7873 16.1559 -2.48217 0.99827 -0.0 -0.0 -0.0 0.0 -0.0 30.8492 6.38075 -7.3127 -2.11398 -0.081251 -0.314232 -14.4204 -6.72763 -2.1618 -19.6513 0.0 0.0 0.0 0.0 0.0 
2713.68144922 712.557 -1541.59760257 -3.95062903378 78.9618040128 3.59769866165 0.697579 0.0804559 2.27255 0.70045 -0.0642771 2.27306 0.698613 -0.513886 2.21517 0.691799 -0.157686 2.2685 -12.4358 6.65128 -4.6859 -12.5132 15.6051 -2.55973 -0.0 0.0 -0.0 2.53554 7.25714 5.38801 4.95775 -34.425 41.0592 2.47016 -50.7353 1.17135 -83.192 -8.22519 5.2254 -1.54459 18.7248 -1.71099 -0.0 0.0 -0.0 7.22935 12.2031 -13.7778 -28.5126 15.5368 -69.395 0.68702 18.795 -0.113706 39.6929 0.333384 4.95953 -0.205192 -20.8508 -7.17292 0.0 0.0 0.0 -5.61715 -6.095 4.35946 -4.68933 0.16447 0.700678 20.2176 13.4324 -2.7745 1.58457 -0.0 -0.0 -0.0 0.0 -0.0 29.5625 6.25977 -7.83073 4.24051 0.197707 0.620438 -16.1618 -4.2383 -2.43225 -20.2727 0.0 0.0 0.0 0.0 0.0 
2697.50048459 708.223 -1546.6415286 -1.14021222955 78.072568139 0.359680227168 0.581288 0.160654 2.35808 0.584382 0.0103199 2.36352 0.585743 -0.463247 2.31773 0.578258 -0.0914979 2.36177 -12.9293 6.20388 -5.07705 -12.9975 14.9821 -3.00198 -0.0 0.0 -0.0 2.55151 7.22979 5.41484 5.03427 -34.3533 41.1012 2.52116 -51.3076 1.211 -83.0791 -8.21099 5.22771 -1.70038 19.7054 -2.18495 -0.0 0.0 -0.0 7.07144 11.1169 -13.4912 -28.5631 15.6634 -69.5651 0.711538 19.4163 -0.121731 39.9043 0.344292 4.98427 -0.179137 -20.9686 -7.37311 0.0 0.0 0.0 -6.34901 -6.51614 4.6229 -6.18918 0.204899 0.927297 21.8974 11.4431 -2.97223 1.99393 -0.0 -0.0 -0.0 0.0 -0.0 28.8326 6.16934 -8.25022 8.66733 0.452589 1.25103 -17.3562 -2.48542 -2.62157 -20.6743 0.0 0.0 0.0 0.0 0.0 
2602.33988977 683.099 -1554.80925312 8.23925123978 77.2000778174 -10.2360230915 0.194367 0.65515 2.62581 0.198071 0.486796 2.66214 0.222793 -0.0729463 2.70527 0.212757 0.355059 2.68287 -11.9203 6.37274 -3.46871 -11.9915 14.3128 -1.53963 -0.0 0.0 -0.0 2.77058 8.37326 5.8729 4.38891 -34.8238 43.2384 3.28075 -58.3822 1.83323 -83.4069 -8.25222 5.22093 -2.13417 21.9052 -3.67901 -0.0 0.0 -0.0 7.18286 9.2472 -13.803 -28.231 16.8223 -71.4114 0.616506 16.9827 -0.0920432 40.5909 0.380355 5.06435 -0.292788 -24.189 -7.94357 0.0 0.0 0.0 -13.2022 -6.31778 6.63846 -9.44273 0.272121 1.42198 25.7815 8.04405 -3.42186 4.35669 -0.0 -0.0 -0.0 0.0 -0.0 28.8722 5.68868 -8.27444 7.64409 0.389342 1.10702 -20.58 -1.71553 -3.11754 -19.7956 0.0 0.0 0.0 0.0 0.0 
